<svg width="18" height="18" viewBox="0 0 18 18" fill="none" xmlns="http://www.w3.org/2000/svg">
<path d="M6.28521 6.63992C6.80721 7.72714 7.5188 8.74612 8.41998 9.6473C9.32116 10.5485 10.3401 11.2601 11.4274 11.7821C11.5209 11.827 11.5676 11.8494 11.6268 11.8667C11.8371 11.928 12.0953 11.8839 12.2733 11.7564C12.3234 11.7206 12.3663 11.6777 12.452 11.5919C12.7143 11.3297 12.8454 11.1986 12.9772 11.1129C13.4744 10.7897 14.1153 10.7897 14.6125 11.1129C14.7443 11.1986 14.8754 11.3297 15.1376 11.592L15.2838 11.7381C15.6823 12.1367 15.8816 12.336 15.9899 12.55C16.2052 12.9757 16.2052 13.4784 15.9899 13.9041C15.8816 14.1181 15.6823 14.3174 15.2838 14.716L15.1655 14.8342C14.7683 15.2314 14.5697 15.43 14.2997 15.5817C14 15.75 13.5347 15.871 13.191 15.87C12.8813 15.8691 12.6696 15.809 12.2463 15.6889C9.97125 15.0431 7.82448 13.8248 6.0335 12.0338C4.24251 10.2428 3.02415 8.09603 2.37843 5.82098C2.25827 5.39765 2.19819 5.18598 2.19727 4.87627C2.19625 4.53261 2.31727 4.06724 2.48559 3.76761C2.63727 3.49758 2.83588 3.29898 3.2331 2.90176L3.35132 2.78353C3.74991 2.38495 3.9492 2.18566 4.16323 2.0774C4.5889 1.8621 5.0916 1.8621 5.51727 2.0774C5.73131 2.18566 5.9306 2.38495 6.32918 2.78353L6.47533 2.92968C6.73754 3.19189 6.86864 3.32299 6.95436 3.45482C7.2776 3.95199 7.2776 4.59293 6.95435 5.0901C6.86864 5.22193 6.73754 5.35303 6.47533 5.61524C6.3896 5.70097 6.34673 5.74384 6.31085 5.79395C6.18334 5.97202 6.13932 6.23021 6.20061 6.44048C6.21786 6.49965 6.24031 6.54641 6.28521 6.63992Z" stroke="#7F3FC9" stroke-width="1.2" stroke-linecap="round" stroke-linejoin="round"/>
</svg>
